%
M48
M72
T01C0.0430
T02C0.0630
T03C0.3000
%
T01
X16310Y31103
X16360Y33103
X16410Y35103
X13160Y33603
X13160Y31603
X13160Y37103
X96160Y66103
X98410Y67103
X97160Y69353
X102410Y69353
X105810Y65103
X106410Y61853
X104410Y61353
X104610Y59453
X106260Y58853
X104610Y57253
X103660Y56853
X101160Y56603
X100910Y54353
X98610Y52853
X102110Y48553
X103910Y49603
X104410Y47853
X106410Y48603
X104010Y45703
X101960Y46453
X101160Y45853
X100910Y42603
X100410Y40353
X101410Y38603
X103160Y35603
X104160Y33353
X104660Y32353
X105860Y34153
X105410Y38103
X106660Y38103
X105160Y39853
X97910Y33103
X101160Y28603
X100410Y26353
X103160Y24603
X106410Y25353
X106410Y20853
X104410Y19603
X102410Y18353
X99910Y14353
X97160Y14603
X106660Y53603
X103160Y59353
X98710Y63003
X99910Y63353
X102310Y64503
T02
X105410Y58103
X13472Y40915
T03
X9910Y14103
X9910Y67603
X105410Y67853
X105410Y14103
M30
