G75*
G70*
%OFA0B0*%
%FSLAX24Y24*%
%IPPOS*%
%LPD*%
%AMOC8*
5,1,8,0,0,1.08239X$1,22.5*
%
%ADD10C,0.0650*%
%ADD11C,0.0400*%
%ADD12C,0.0945*%
%ADD13C,0.0600*%
%ADD14C,0.3400*%
D10*
X016310Y031103D03*
X016360Y033103D03*
X016410Y035103D03*
X013160Y033603D03*
X013160Y031603D03*
X013160Y037103D03*
X096160Y066103D03*
X098410Y067103D03*
X097160Y069353D03*
X102410Y069353D03*
X105810Y065103D03*
X106410Y061853D03*
X104410Y061353D03*
X104610Y059453D03*
X106260Y058853D03*
X104610Y057253D03*
X103660Y056853D03*
X101160Y056603D03*
X100910Y054353D03*
X098610Y052853D03*
X102110Y048553D03*
X103910Y049603D03*
X104410Y047853D03*
X106410Y048603D03*
X104010Y045703D03*
X101960Y046453D03*
X101160Y045853D03*
X100910Y042603D03*
X100410Y040353D03*
X101410Y038603D03*
X103160Y035603D03*
X104160Y033353D03*
X104660Y032353D03*
X105860Y034153D03*
X105410Y038103D03*
X106660Y038103D03*
X105160Y039853D03*
X097910Y033103D03*
X101160Y028603D03*
X100410Y026353D03*
X103160Y024603D03*
X106410Y025353D03*
X106410Y020853D03*
X104410Y019603D03*
X102410Y018353D03*
X099910Y014353D03*
X097160Y014603D03*
X106660Y053603D03*
X103160Y059353D03*
X098710Y063003D03*
X099910Y063353D03*
X102310Y064503D03*
D11*
X102410Y064603D01*
X102410Y064853D01*
X101910Y065353D01*
X098910Y065353D01*
X097910Y064353D01*
X097910Y061353D01*
X099910Y059353D01*
X103160Y059353D01*
X103660Y060403D02*
X104610Y059453D01*
X103660Y060403D02*
X100860Y060403D01*
X098710Y062553D01*
X098710Y063003D01*
X099910Y063353D02*
X102410Y063353D01*
X104410Y061353D01*
X105910Y061353D01*
X106410Y061853D01*
X107210Y060053D02*
X107210Y064153D01*
X106360Y065003D01*
X105910Y065003D01*
X105810Y065103D01*
X102410Y069353D02*
X100160Y067103D01*
X098410Y067103D01*
X097160Y067103D02*
X096160Y066103D01*
X097160Y067103D02*
X097160Y069353D01*
X107210Y060053D02*
X106260Y059103D01*
X106260Y058853D01*
X104610Y057253D02*
X104610Y050303D01*
X103910Y049603D01*
X103910Y048853D01*
X102910Y047853D01*
X102910Y042103D01*
X105160Y039853D01*
X104410Y039103D02*
X103160Y040353D01*
X100410Y040353D01*
X100410Y042103D01*
X100910Y042603D01*
X104010Y045703D02*
X104110Y045703D01*
X106110Y043703D01*
X106110Y038953D01*
X105410Y038253D01*
X105410Y038103D01*
X106660Y038103D02*
X107160Y038603D01*
X107160Y051353D01*
X106660Y051853D01*
X106660Y053603D01*
X103910Y053353D02*
X103910Y056603D01*
X103660Y056853D01*
X101160Y056603D02*
X100910Y056353D01*
X100910Y054353D01*
X099410Y052853D01*
X098610Y052853D01*
X099660Y051603D02*
X100660Y052603D01*
X103160Y052603D01*
X103910Y053353D01*
X099660Y051603D02*
X099660Y050103D01*
X101160Y048603D01*
X101160Y045853D01*
X101960Y046453D02*
X101960Y048403D01*
X102110Y048553D01*
X104410Y047853D02*
X105660Y047853D01*
X106410Y048603D01*
X104410Y039103D02*
X104410Y035353D01*
X102160Y033103D01*
X097910Y033103D01*
X097660Y033103D01*
X098410Y032353D01*
X100410Y032353D01*
X103160Y029603D01*
X103160Y024603D01*
X100410Y026353D02*
X100410Y027853D01*
X101160Y028603D01*
X098660Y031103D01*
X016310Y031103D01*
X015410Y032003D01*
X015410Y036353D01*
X017660Y038603D01*
X101410Y038603D01*
X103160Y035603D02*
X102660Y035103D01*
X016410Y035103D01*
X016360Y033103D02*
X097660Y033103D01*
X104160Y033353D02*
X105460Y033353D01*
X105860Y033753D01*
X105860Y034153D01*
X104660Y032353D02*
X104410Y032103D01*
X104410Y022853D01*
X099910Y018353D01*
X099910Y014353D01*
X099660Y014603D01*
X097160Y014603D01*
X102410Y018353D02*
X102410Y019103D01*
X106410Y023103D01*
X106410Y025353D01*
X106660Y025603D01*
X106660Y038103D01*
X106410Y020853D02*
X105660Y020853D01*
X104410Y019603D01*
X013160Y031603D02*
X013160Y033603D01*
X013160Y037103D01*
D12*
X013472Y040915D03*
X105410Y058103D03*
D13*
X026410Y058103D01*
X012910Y044603D01*
X012910Y041478D01*
X013472Y040915D01*
D14*
X009910Y014103D03*
X009910Y067603D03*
X105410Y067853D03*
X105410Y014103D03*
M02*
