G75*
G70*
%OFA0B0*%
%FSLAX24Y24*%
%IPPOS*%
%LPD*%
%AMOC8*
5,1,8,0,0,1.08239X$1,22.5*
%
%ADD10C,0.0730*%
%ADD11C,0.1025*%
%ADD12C,0.3480*%
D10*
X016310Y031103D03*
X016360Y033103D03*
X016410Y035103D03*
X013160Y033603D03*
X013160Y031603D03*
X013160Y037103D03*
X096160Y066103D03*
X098410Y067103D03*
X097160Y069353D03*
X102410Y069353D03*
X105810Y065103D03*
X106410Y061853D03*
X104410Y061353D03*
X104610Y059453D03*
X106260Y058853D03*
X104610Y057253D03*
X103660Y056853D03*
X101160Y056603D03*
X100910Y054353D03*
X098610Y052853D03*
X102110Y048553D03*
X103910Y049603D03*
X104410Y047853D03*
X106410Y048603D03*
X104010Y045703D03*
X101960Y046453D03*
X101160Y045853D03*
X100910Y042603D03*
X100410Y040353D03*
X101410Y038603D03*
X103160Y035603D03*
X104160Y033353D03*
X104660Y032353D03*
X105860Y034153D03*
X105410Y038103D03*
X106660Y038103D03*
X105160Y039853D03*
X097910Y033103D03*
X101160Y028603D03*
X100410Y026353D03*
X103160Y024603D03*
X106410Y025353D03*
X106410Y020853D03*
X104410Y019603D03*
X102410Y018353D03*
X099910Y014353D03*
X097160Y014603D03*
X106660Y053603D03*
X103160Y059353D03*
X098710Y063003D03*
X099910Y063353D03*
X102310Y064503D03*
D11*
X105410Y058103D03*
X013472Y040915D03*
D12*
X009910Y014103D03*
X009910Y067603D03*
X105410Y067853D03*
X105410Y014103D03*
M02*
