G75*
G70*
%OFA0B0*%
%FSLAX24Y24*%
%IPPOS*%
%LPD*%
%AMOC8*
5,1,8,0,0,1.08239X$1,22.5*
%
%ADD10R,0.0512X0.1299*%
%ADD11R,0.0315X0.1299*%
%ADD12R,0.0866X0.0551*%
%ADD13R,0.0500X0.0300*%
%ADD14R,0.0300X0.0500*%
%ADD15R,0.0630X0.1181*%
%ADD16R,0.1181X0.0630*%
%ADD17R,0.0295X0.0177*%
%ADD18R,0.0846X0.0945*%
%ADD19R,0.1500X0.1150*%
%ADD20C,0.0400*%
%ADD21C,0.0650*%
%ADD22C,0.0600*%
%ADD23C,0.0945*%
%ADD24C,0.0100*%
%ADD25C,0.0200*%
%ADD26C,0.3400*%
%ADD27C,0.0090*%
D10*
X015160Y012915D03*
X020160Y019915D03*
X025160Y012915D03*
X030160Y019915D03*
X035160Y012915D03*
X040160Y019915D03*
X045160Y012915D03*
X050160Y019915D03*
X055160Y012915D03*
X060160Y019915D03*
X065160Y012915D03*
X070160Y019915D03*
X075160Y012915D03*
X080160Y019915D03*
X085160Y012915D03*
X090160Y019915D03*
X095160Y012915D03*
X100160Y019915D03*
X095160Y026915D03*
X100160Y033915D03*
X095160Y040915D03*
X100160Y047915D03*
X095160Y054915D03*
X100160Y061915D03*
X095160Y068915D03*
X090160Y061915D03*
X085160Y054915D03*
X090160Y047915D03*
X085160Y040915D03*
X090160Y033915D03*
X085160Y026915D03*
X080160Y033915D03*
X075160Y026915D03*
X070160Y033915D03*
X065160Y026915D03*
X060160Y033915D03*
X055160Y026915D03*
X050160Y033915D03*
X045160Y026915D03*
X040160Y033915D03*
X035160Y026915D03*
X030160Y033915D03*
X025160Y026915D03*
X020160Y033915D03*
X015160Y026915D03*
X015160Y040915D03*
X020160Y047915D03*
X025160Y040915D03*
X030160Y047915D03*
X035160Y040915D03*
X040160Y047915D03*
X045160Y040915D03*
X050160Y047915D03*
X055160Y040915D03*
X060160Y047915D03*
X065160Y040915D03*
X070160Y047915D03*
X075160Y040915D03*
X080160Y047915D03*
X075160Y054915D03*
X080160Y061915D03*
X085160Y068915D03*
X075160Y068915D03*
X070160Y061915D03*
X065160Y054915D03*
X060160Y061915D03*
X065160Y068915D03*
X055160Y068915D03*
X050160Y061915D03*
X055160Y054915D03*
X045160Y054915D03*
X040160Y061915D03*
X045160Y068915D03*
X035160Y068915D03*
X030160Y061915D03*
X035160Y054915D03*
X025160Y054915D03*
X020160Y061915D03*
X025160Y068915D03*
X015160Y068915D03*
X015160Y054915D03*
D11*
X015796Y054915D03*
X014524Y054915D03*
X019524Y047915D03*
X020796Y047915D03*
X029524Y047915D03*
X030796Y047915D03*
X039524Y047915D03*
X040796Y047915D03*
X049524Y047915D03*
X050796Y047915D03*
X059524Y047915D03*
X060796Y047915D03*
X069524Y047915D03*
X070796Y047915D03*
X079524Y047915D03*
X080796Y047915D03*
X084524Y040915D03*
X085796Y040915D03*
X094524Y040915D03*
X095796Y040915D03*
X099524Y033915D03*
X100796Y033915D03*
X095796Y026915D03*
X094524Y026915D03*
X090796Y033915D03*
X089524Y033915D03*
X085796Y026915D03*
X084524Y026915D03*
X080796Y033915D03*
X079524Y033915D03*
X075796Y026915D03*
X074524Y026915D03*
X070796Y033915D03*
X069524Y033915D03*
X065796Y026915D03*
X064524Y026915D03*
X060796Y033915D03*
X059524Y033915D03*
X055796Y026915D03*
X054524Y026915D03*
X050796Y033915D03*
X049524Y033915D03*
X045796Y026915D03*
X044524Y026915D03*
X040796Y033915D03*
X039524Y033915D03*
X035796Y026915D03*
X034524Y026915D03*
X030796Y033915D03*
X029524Y033915D03*
X025796Y026915D03*
X024524Y026915D03*
X020796Y033915D03*
X019524Y033915D03*
X015796Y026915D03*
X014524Y026915D03*
X019524Y019915D03*
X020796Y019915D03*
X029524Y019915D03*
X030796Y019915D03*
X039524Y019915D03*
X040796Y019915D03*
X049524Y019915D03*
X050796Y019915D03*
X059524Y019915D03*
X060796Y019915D03*
X069524Y019915D03*
X070796Y019915D03*
X079524Y019915D03*
X080796Y019915D03*
X084524Y012915D03*
X085796Y012915D03*
X094524Y012915D03*
X095796Y012915D03*
X099524Y019915D03*
X100796Y019915D03*
X090796Y019915D03*
X089524Y019915D03*
X075796Y012915D03*
X074524Y012915D03*
X065796Y012915D03*
X064524Y012915D03*
X055796Y012915D03*
X054524Y012915D03*
X045796Y012915D03*
X044524Y012915D03*
X035796Y012915D03*
X034524Y012915D03*
X025796Y012915D03*
X024524Y012915D03*
X015796Y012915D03*
X014524Y012915D03*
X014524Y040915D03*
X015796Y040915D03*
X024524Y040915D03*
X025796Y040915D03*
X034524Y040915D03*
X035796Y040915D03*
X044524Y040915D03*
X045796Y040915D03*
X054524Y040915D03*
X055796Y040915D03*
X064524Y040915D03*
X065796Y040915D03*
X074524Y040915D03*
X075796Y040915D03*
X089524Y047915D03*
X090796Y047915D03*
X099524Y047915D03*
X100796Y047915D03*
X095796Y054915D03*
X094524Y054915D03*
X085796Y054915D03*
X084524Y054915D03*
X075796Y054915D03*
X074524Y054915D03*
X065796Y054915D03*
X064524Y054915D03*
X055796Y054915D03*
X054524Y054915D03*
X045796Y054915D03*
X044524Y054915D03*
X035796Y054915D03*
X034524Y054915D03*
X030796Y061915D03*
X029524Y061915D03*
X020796Y061915D03*
X019524Y061915D03*
X015796Y068915D03*
X014524Y068915D03*
X024524Y068915D03*
X025796Y068915D03*
X034524Y068915D03*
X035796Y068915D03*
X044524Y068915D03*
X045796Y068915D03*
X054524Y068915D03*
X055796Y068915D03*
X064524Y068915D03*
X065796Y068915D03*
X074524Y068915D03*
X075796Y068915D03*
X084524Y068915D03*
X085796Y068915D03*
X094524Y068915D03*
X095796Y068915D03*
X099524Y061915D03*
X100796Y061915D03*
X090796Y061915D03*
X089524Y061915D03*
X080796Y061915D03*
X079524Y061915D03*
X070796Y061915D03*
X069524Y061915D03*
X060796Y061915D03*
X059524Y061915D03*
X050796Y061915D03*
X049524Y061915D03*
X040796Y061915D03*
X039524Y061915D03*
X025796Y054915D03*
X024524Y054915D03*
D12*
X101910Y017084D03*
X101910Y015746D03*
X105660Y021746D03*
X105660Y023084D03*
X105660Y027496D03*
X105660Y028834D03*
X105660Y035246D03*
X105660Y036584D03*
X105660Y041246D03*
X105660Y042584D03*
X105660Y049746D03*
X105660Y051084D03*
X105660Y055246D03*
X105660Y056584D03*
X105660Y062746D03*
X105660Y064084D03*
X103410Y064209D03*
X103410Y062871D03*
D13*
X103360Y061040D03*
X103360Y060290D03*
X102460Y060665D03*
X102210Y055290D03*
X102210Y054540D03*
X103110Y054915D03*
X099110Y055290D03*
X099110Y054540D03*
X098210Y054915D03*
X103360Y047540D03*
X103360Y046790D03*
X102460Y047165D03*
X101710Y041290D03*
X101710Y040540D03*
X102610Y040915D03*
X099110Y040540D03*
X099110Y041290D03*
X098210Y040915D03*
X102460Y032665D03*
X103360Y032290D03*
X103360Y033040D03*
X101710Y027290D03*
X101710Y026540D03*
X102610Y026915D03*
X098860Y026540D03*
X098860Y027290D03*
X097960Y026915D03*
X103610Y020040D03*
X103610Y019290D03*
X102710Y019665D03*
X098360Y015665D03*
X097460Y015290D03*
X097460Y016040D03*
X098360Y068040D03*
X098360Y068790D03*
X097460Y068415D03*
X100960Y068040D03*
X100960Y068790D03*
X101860Y068415D03*
D14*
X105347Y061053D03*
X106097Y061053D03*
X105722Y060153D03*
X105347Y047553D03*
X106097Y047553D03*
X105722Y046653D03*
X105347Y033053D03*
X106097Y033053D03*
X105722Y032153D03*
X105347Y020053D03*
X106097Y020053D03*
X105722Y019153D03*
X098222Y013803D03*
X097472Y013803D03*
X097847Y012903D03*
D15*
X100794Y023290D03*
X102526Y023290D03*
X101026Y030040D03*
X099294Y030040D03*
X101044Y037040D03*
X102776Y037040D03*
X101276Y044040D03*
X099544Y044040D03*
X101294Y051040D03*
X103026Y051040D03*
X101276Y057790D03*
X099544Y057790D03*
X099544Y064790D03*
X101276Y064790D03*
X097776Y064790D03*
X096044Y064790D03*
D16*
X099847Y017219D03*
X099847Y015486D03*
D17*
X014160Y030719D03*
X014160Y031231D03*
X014160Y031486D03*
X014160Y032719D03*
X014160Y033231D03*
X014160Y033486D03*
X014160Y034719D03*
X014160Y035231D03*
X014160Y035486D03*
D18*
X014987Y035103D03*
X014987Y033103D03*
X014987Y031103D03*
D19*
X011660Y031103D03*
X011660Y033103D03*
X011660Y035103D03*
X011660Y037103D03*
X011660Y039103D03*
D20*
X014410Y016853D02*
X014410Y013035D01*
X014524Y012915D01*
X015160Y012915D02*
X015160Y014103D01*
X015910Y014853D01*
X015796Y012915D02*
X024524Y012915D01*
X025160Y012915D02*
X025160Y014603D01*
X025796Y012915D02*
X034524Y012915D01*
X035160Y012915D02*
X035160Y014353D01*
X035796Y012915D02*
X044524Y012915D01*
X045160Y012915D02*
X045160Y014603D01*
X045796Y012915D02*
X054524Y012915D01*
X055160Y012915D02*
X055160Y014603D01*
X054910Y014853D01*
X055796Y012915D02*
X064524Y012915D01*
X065160Y012915D02*
X065160Y014353D01*
X064910Y014603D01*
X065796Y012915D02*
X074524Y012915D01*
X075160Y012915D02*
X075160Y014603D01*
X075796Y012915D02*
X084524Y012915D01*
X085160Y012915D02*
X085160Y014603D01*
X085796Y012915D02*
X094524Y012915D01*
X095160Y012915D02*
X095160Y014353D01*
X094910Y014603D01*
X096160Y014353D02*
X096710Y013803D01*
X097472Y013803D01*
X098222Y013803D02*
X098422Y013603D01*
X100910Y013603D01*
X101910Y014603D01*
X101910Y015746D01*
X101910Y017084D02*
X101910Y017853D01*
X102410Y018353D01*
X102710Y019665D02*
X102460Y019915D01*
X100796Y019915D01*
X100160Y019915D02*
X100160Y018603D01*
X099910Y018353D01*
X099847Y017219D02*
X099231Y016603D01*
X098160Y016603D01*
X097597Y016040D01*
X097460Y016040D01*
X097397Y016103D01*
X096910Y016103D01*
X096160Y015353D01*
X096160Y014353D01*
X097160Y014603D02*
X097460Y014903D01*
X097460Y015290D01*
X098222Y015528D02*
X098360Y015665D01*
X098222Y015528D02*
X098222Y013803D01*
X097835Y012915D02*
X097847Y012903D01*
X097835Y012915D02*
X095796Y012915D01*
X099847Y014415D02*
X099910Y014353D01*
X099910Y015424D01*
X099847Y015486D01*
X099847Y014415D01*
X104160Y018603D02*
X105172Y018603D01*
X105722Y019153D01*
X106710Y019153D01*
X107160Y019603D01*
X107160Y021103D01*
X106660Y021603D01*
X105803Y021603D01*
X105660Y021746D01*
X106410Y020853D02*
X106097Y020540D01*
X106097Y020053D01*
X105347Y020053D02*
X105347Y020469D01*
X102526Y023290D01*
X102526Y023969D01*
X103160Y024603D01*
X102410Y025603D02*
X102910Y026103D01*
X102910Y026615D01*
X102610Y026915D01*
X105079Y026915D01*
X105660Y027496D01*
X106910Y028103D02*
X106910Y025853D01*
X106410Y025353D01*
X106410Y023834D01*
X105660Y023084D01*
X104160Y020103D02*
X103672Y020103D01*
X103610Y020040D01*
X103610Y020153D01*
X100910Y022853D01*
X100910Y023174D01*
X100794Y023290D01*
X102410Y025603D02*
X099160Y025603D01*
X098860Y025903D01*
X098860Y026540D01*
X098860Y027290D02*
X101710Y027290D01*
X101710Y026540D02*
X100597Y026540D01*
X100410Y026353D01*
X098860Y027290D02*
X098860Y029606D01*
X099294Y030040D01*
X101026Y030040D02*
X101160Y029906D01*
X101160Y028603D01*
X097960Y026915D02*
X095796Y026915D01*
X095160Y026915D02*
X095160Y025353D01*
X094524Y026915D02*
X085796Y026915D01*
X085160Y026915D02*
X085160Y024853D01*
X084524Y026915D02*
X075796Y026915D01*
X075160Y026915D02*
X075160Y025103D01*
X074524Y026915D02*
X065796Y026915D01*
X065160Y026915D02*
X065160Y025103D01*
X064524Y026915D02*
X055796Y026915D01*
X055160Y026915D02*
X055160Y025353D01*
X055410Y025103D01*
X054524Y026915D02*
X045796Y026915D01*
X045160Y026915D02*
X045160Y025353D01*
X044524Y026915D02*
X035796Y026915D01*
X035160Y026915D02*
X035160Y024853D01*
X034524Y026915D02*
X025796Y026915D01*
X025160Y026915D02*
X025160Y025103D01*
X024524Y026915D02*
X015796Y026915D01*
X015160Y026915D02*
X015160Y026103D01*
X016160Y025103D01*
X014530Y024915D02*
X014524Y026915D01*
X014410Y027035D01*
X014410Y028353D01*
X016160Y030103D01*
X017910Y030103D01*
X018660Y030853D01*
X018660Y033045D01*
X019524Y033915D01*
X014530Y038915D01*
X014524Y040915D01*
X014410Y041035D01*
X014410Y042353D01*
X019530Y047473D01*
X019524Y047915D01*
X014530Y052915D01*
X014524Y054915D01*
X014410Y055035D01*
X014410Y056353D01*
X019530Y061473D01*
X019524Y061915D01*
X014530Y066665D01*
X014524Y068915D01*
X015160Y068915D02*
X015160Y068103D01*
X016660Y066603D01*
X015796Y068915D02*
X024524Y068915D01*
X025160Y068915D02*
X025160Y066853D01*
X025410Y066603D01*
X025796Y068915D02*
X034524Y068915D01*
X035160Y068915D02*
X035160Y067603D01*
X035660Y067103D01*
X035796Y068915D02*
X035910Y069035D01*
X035910Y069103D01*
X036097Y068915D01*
X044524Y068915D01*
X045160Y068915D02*
X045160Y066853D01*
X044910Y066603D01*
X045796Y068915D02*
X054524Y068915D01*
X055160Y068915D02*
X055160Y066853D01*
X055796Y068915D02*
X064524Y068915D01*
X065160Y068915D02*
X065160Y067353D01*
X065410Y067103D01*
X065796Y068915D02*
X074524Y068915D01*
X075160Y068915D02*
X075160Y066603D01*
X075796Y068915D02*
X084524Y068915D01*
X085160Y068915D02*
X085160Y066853D01*
X085410Y066603D01*
X085796Y068915D02*
X094524Y068915D01*
X095160Y068915D02*
X095160Y067603D01*
X094910Y067353D01*
X096160Y068353D02*
X095790Y068723D01*
X095796Y068915D01*
X096160Y068353D02*
X097397Y068353D01*
X097460Y068415D01*
X098360Y068040D02*
X098360Y067153D01*
X098410Y067103D01*
X097776Y064790D02*
X097776Y063936D01*
X098710Y063003D01*
X099544Y063719D02*
X099910Y063353D01*
X099544Y063719D02*
X099544Y064790D01*
X101276Y064790D02*
X102022Y064790D01*
X102310Y064503D01*
X101910Y064103D01*
X101910Y062603D01*
X102410Y062103D01*
X104660Y062103D01*
X105347Y061415D01*
X105347Y061053D01*
X106097Y061053D02*
X106410Y061365D01*
X106410Y061853D01*
X107160Y062353D02*
X107160Y060853D01*
X106410Y060103D01*
X105772Y060103D01*
X105722Y060153D01*
X105585Y060290D01*
X103360Y060290D01*
X103360Y061040D02*
X104097Y061040D01*
X104410Y061353D01*
X102460Y060665D02*
X101210Y061915D01*
X100796Y061915D01*
X100160Y061915D02*
X100160Y060603D01*
X099660Y060103D01*
X099524Y061915D02*
X090796Y061915D01*
X090160Y061915D02*
X090160Y060103D01*
X090410Y059853D01*
X089524Y061915D02*
X080796Y061915D01*
X080160Y061915D02*
X080160Y060103D01*
X080410Y059853D01*
X079524Y061915D02*
X070796Y061915D01*
X070160Y061915D02*
X070160Y060103D01*
X070660Y059603D01*
X069524Y061915D02*
X060796Y061915D01*
X060160Y061915D02*
X060160Y059853D01*
X060410Y059603D01*
X059524Y061915D02*
X050796Y061915D01*
X050160Y061915D02*
X050160Y059603D01*
X049524Y061915D02*
X040796Y061915D01*
X040160Y061915D02*
X040160Y059853D01*
X039910Y059603D01*
X039524Y061915D02*
X030796Y061915D01*
X030160Y061915D02*
X030160Y059853D01*
X029524Y061915D02*
X020796Y061915D01*
X020160Y061915D02*
X020160Y060603D01*
X020910Y059853D01*
X024524Y054915D02*
X015796Y054915D01*
X015160Y054915D02*
X015160Y054103D01*
X016410Y052853D01*
X020160Y047915D02*
X020160Y046603D01*
X020910Y045853D01*
X020796Y047915D02*
X029524Y047915D01*
X030160Y047915D02*
X030160Y046103D01*
X030410Y045853D01*
X030796Y047915D02*
X039524Y047915D01*
X040160Y047915D02*
X040160Y046353D01*
X040410Y046103D01*
X040796Y047915D02*
X049524Y047915D01*
X050160Y047915D02*
X050160Y046103D01*
X050410Y045853D01*
X050796Y047915D02*
X059524Y047915D01*
X060160Y047915D02*
X060160Y046353D01*
X060410Y046103D01*
X060796Y047915D02*
X069524Y047915D01*
X070160Y047915D02*
X070160Y046353D01*
X070660Y045853D01*
X070796Y047915D02*
X079524Y047915D01*
X080160Y047915D02*
X080160Y046353D01*
X080410Y046103D01*
X080796Y047915D02*
X089524Y047915D01*
X090160Y047915D02*
X090160Y046603D01*
X090660Y046103D01*
X090796Y047915D02*
X099524Y047915D01*
X100160Y047915D02*
X100160Y046853D01*
X099410Y046103D01*
X101160Y045853D02*
X101276Y045736D01*
X101276Y044040D01*
X100910Y043674D01*
X100910Y042603D01*
X101710Y041290D02*
X099110Y041290D01*
X099110Y043606D01*
X099544Y044040D01*
X101960Y046453D02*
X102710Y045703D01*
X104010Y045703D01*
X103360Y046790D02*
X105585Y046790D01*
X105722Y046653D01*
X106210Y046653D01*
X107160Y047603D01*
X107160Y049603D01*
X106910Y049853D01*
X105767Y049853D01*
X105660Y049746D01*
X106410Y048603D02*
X106410Y047865D01*
X106097Y047553D01*
X105410Y047615D02*
X105347Y047553D01*
X105347Y048040D01*
X105410Y048103D01*
X103910Y049603D01*
X103026Y050486D01*
X103026Y051040D01*
X101294Y051040D02*
X101160Y050906D01*
X101160Y050603D01*
X103360Y048403D01*
X103360Y047540D01*
X104097Y047540D01*
X104410Y047853D01*
X105410Y047615D02*
X105410Y048103D01*
X102460Y047165D02*
X101710Y047915D01*
X100796Y047915D01*
X102010Y048553D02*
X101110Y049453D01*
X100160Y049453D01*
X098410Y051203D01*
X098410Y052653D01*
X098610Y052853D01*
X099110Y054153D02*
X099910Y053353D01*
X102160Y053353D01*
X103160Y054353D01*
X103160Y054865D01*
X103110Y054915D01*
X105329Y054915D01*
X105660Y055246D01*
X105660Y056584D02*
X105678Y056603D01*
X106410Y056603D01*
X106660Y056353D01*
X106660Y053603D01*
X105660Y052603D01*
X105660Y051084D01*
X102110Y048553D02*
X102010Y048553D01*
X095160Y053103D02*
X094660Y052603D01*
X095160Y053103D02*
X095160Y054915D01*
X095796Y054915D02*
X098210Y054915D01*
X099110Y054540D02*
X099110Y054153D01*
X099110Y055290D02*
X102210Y055290D01*
X102210Y054540D02*
X101097Y054540D01*
X100910Y054353D01*
X099110Y055290D02*
X099110Y057356D01*
X099544Y057790D01*
X101160Y057674D02*
X101276Y057790D01*
X101160Y057674D02*
X101160Y056603D01*
X103660Y056853D02*
X103660Y058853D01*
X103160Y059353D01*
X104460Y059253D02*
X104460Y057403D01*
X104610Y057253D01*
X105410Y058103D02*
X105510Y058103D01*
X106260Y058853D01*
X104610Y059403D02*
X104460Y059253D01*
X104610Y059403D02*
X104610Y059453D01*
X107160Y062353D02*
X106767Y062746D01*
X105660Y062746D01*
X105660Y064084D02*
X105642Y064103D01*
X105410Y064103D01*
X104178Y062871D01*
X103410Y062871D01*
X103410Y064209D02*
X103410Y065853D01*
X101910Y067353D01*
X101910Y068365D01*
X101860Y068415D01*
X102410Y068965D01*
X102410Y069353D01*
X100960Y068790D02*
X098360Y068790D01*
X098360Y068903D01*
X097910Y069353D01*
X097160Y069353D01*
X100960Y068040D02*
X100960Y067974D01*
X097776Y064790D01*
X096160Y064906D02*
X096160Y066103D01*
X096160Y064906D02*
X096044Y064790D01*
X105660Y064084D02*
X105810Y064234D01*
X105810Y065103D01*
X094524Y054915D02*
X085796Y054915D01*
X085160Y054915D02*
X085160Y052603D01*
X084524Y054915D02*
X075796Y054915D01*
X075160Y054915D02*
X075160Y052603D01*
X074524Y054915D02*
X065796Y054915D01*
X065160Y054915D02*
X065160Y052853D01*
X064524Y054915D02*
X055796Y054915D01*
X055160Y054915D02*
X055160Y053103D01*
X054910Y052853D01*
X054467Y054853D02*
X054524Y054915D01*
X054467Y054853D02*
X054410Y054853D01*
X054347Y054915D01*
X045796Y054915D01*
X045160Y054915D02*
X045160Y053103D01*
X045410Y052853D01*
X044524Y054915D02*
X035796Y054915D01*
X035160Y054915D02*
X035160Y052853D01*
X034524Y054915D02*
X025796Y054915D01*
X025160Y054915D02*
X025160Y053103D01*
X025410Y052853D01*
X025160Y040915D02*
X025160Y039103D01*
X025796Y040915D02*
X034524Y040915D01*
X035160Y040915D02*
X035160Y039353D01*
X035410Y039103D01*
X035796Y040915D02*
X044524Y040915D01*
X045160Y040915D02*
X045160Y039353D01*
X045410Y039103D01*
X045796Y040915D02*
X054524Y040915D01*
X055160Y040915D02*
X055160Y039103D01*
X055410Y038853D01*
X055796Y040915D02*
X064524Y040915D01*
X065160Y040915D02*
X065160Y039353D01*
X065410Y039103D01*
X065796Y040915D02*
X074524Y040915D01*
X075160Y040915D02*
X075160Y039103D01*
X075410Y038853D01*
X075796Y040915D02*
X084524Y040915D01*
X085160Y040915D02*
X085160Y039103D01*
X085410Y038853D01*
X085796Y040915D02*
X094524Y040915D01*
X095160Y040915D02*
X095160Y039103D01*
X095796Y040915D02*
X098210Y040915D01*
X099110Y040540D02*
X099110Y040153D01*
X099660Y039603D01*
X102160Y039603D01*
X102660Y040103D01*
X102660Y040865D01*
X102610Y040915D01*
X105329Y040915D01*
X105660Y041246D01*
X105660Y042584D02*
X105678Y042603D01*
X106410Y042603D01*
X106660Y042353D01*
X106660Y038103D01*
X106660Y037853D01*
X105660Y036853D01*
X105660Y036584D01*
X105410Y037853D02*
X103160Y035603D01*
X103160Y036656D01*
X102776Y037040D01*
X103160Y035603D02*
X105347Y033415D01*
X105347Y033053D01*
X104660Y032365D01*
X104660Y032353D01*
X105172Y031603D02*
X105722Y032153D01*
X106460Y032153D01*
X106910Y032603D01*
X106910Y034853D01*
X106660Y035103D01*
X105767Y035103D01*
X105660Y035246D01*
X105860Y034153D02*
X106160Y033853D01*
X106160Y033115D01*
X106097Y033053D01*
X105172Y031603D02*
X103660Y031603D01*
X103360Y031903D01*
X103360Y032290D01*
X103360Y033040D02*
X103360Y033903D01*
X101160Y036103D01*
X101160Y036924D01*
X101044Y037040D01*
X101410Y038603D02*
X102910Y038603D01*
X104160Y039853D01*
X105160Y039853D01*
X105410Y038103D02*
X105410Y037853D01*
X101710Y040540D02*
X100597Y040540D01*
X100410Y040353D01*
X100160Y033915D02*
X100160Y032853D01*
X099660Y032353D01*
X099524Y033915D02*
X090796Y033915D01*
X090160Y033915D02*
X090160Y032103D01*
X089524Y033915D02*
X080796Y033915D01*
X080160Y033915D02*
X080160Y031853D01*
X079524Y033915D02*
X070796Y033915D01*
X070160Y033915D02*
X070160Y032353D01*
X070410Y032103D01*
X069524Y033915D02*
X060796Y033915D01*
X060160Y033915D02*
X060160Y032103D01*
X059524Y033915D02*
X050796Y033915D01*
X050160Y033915D02*
X050160Y032353D01*
X049524Y033915D02*
X040796Y033915D01*
X040160Y033915D02*
X040160Y032103D01*
X039524Y033915D02*
X030796Y033915D01*
X030160Y033915D02*
X030160Y032103D01*
X029524Y033915D02*
X020796Y033915D01*
X020160Y033915D02*
X020160Y032353D01*
X020410Y032103D01*
X016360Y033103D02*
X014987Y033103D01*
X014160Y033486D02*
X013276Y033486D01*
X013160Y033603D01*
X012410Y034603D02*
X014044Y034603D01*
X014160Y034719D01*
X014160Y035486D02*
X014160Y036353D01*
X013410Y037103D01*
X013160Y037103D01*
X011660Y037103D01*
X011660Y035103D02*
X011910Y035103D01*
X012410Y034603D01*
X011910Y033103D02*
X011660Y033103D01*
X011910Y033103D02*
X012410Y032603D01*
X014044Y032603D01*
X014160Y032719D01*
X013160Y031603D02*
X013276Y031486D01*
X014160Y031486D01*
X014160Y030719D02*
X014044Y030603D01*
X012410Y030603D01*
X011910Y031103D01*
X011660Y031103D01*
X014987Y031103D02*
X016310Y031103D01*
X016410Y035103D02*
X014987Y035103D01*
X015910Y039353D02*
X016660Y039353D01*
X016910Y039103D01*
X015910Y039353D02*
X015160Y040103D01*
X015160Y040915D01*
X015796Y040915D02*
X024524Y040915D01*
X014524Y040915D02*
X013472Y040915D01*
X011660Y039103D01*
X014530Y024915D02*
X019524Y019915D01*
X019530Y019723D01*
X018660Y018853D01*
X016410Y018853D01*
X014410Y016853D01*
X020160Y018603D02*
X020410Y018353D01*
X020160Y018603D02*
X020160Y019915D01*
X020796Y019915D02*
X029524Y019915D01*
X030160Y019915D02*
X030160Y018353D01*
X030796Y019915D02*
X039524Y019915D01*
X040160Y019915D02*
X040160Y018853D01*
X040410Y018603D01*
X040796Y019915D02*
X049524Y019915D01*
X050160Y019915D02*
X050160Y018603D01*
X049910Y018353D01*
X050796Y019915D02*
X059524Y019915D01*
X060160Y019915D02*
X060160Y018353D01*
X060796Y019915D02*
X069524Y019915D01*
X070160Y019915D02*
X070160Y018353D01*
X070796Y019915D02*
X079524Y019915D01*
X080160Y019915D02*
X080160Y018603D01*
X080796Y019915D02*
X089524Y019915D01*
X090160Y019915D02*
X090160Y018353D01*
X090796Y019915D02*
X099524Y019915D01*
X103610Y019290D02*
X103610Y019153D01*
X104160Y018603D01*
X104410Y019603D02*
X104410Y019853D01*
X104160Y020103D01*
X106910Y028103D02*
X106178Y028834D01*
X105660Y028834D01*
X103847Y033040D02*
X103360Y033040D01*
X103847Y033040D02*
X104160Y033353D01*
X102460Y032665D02*
X101210Y033915D01*
X100796Y033915D01*
D21*
X103160Y035603D03*
X104160Y033353D03*
X104660Y032353D03*
X105860Y034153D03*
X105410Y038103D03*
X106660Y038103D03*
X105160Y039853D03*
X101410Y038603D03*
X100410Y040353D03*
X100910Y042603D03*
X104010Y045703D03*
X101960Y046453D03*
X101160Y045853D03*
X102110Y048553D03*
X103910Y049603D03*
X104410Y047853D03*
X106410Y048603D03*
X106660Y053603D03*
X103660Y056853D03*
X104610Y057253D03*
X106260Y058853D03*
X104610Y059453D03*
X103160Y059353D03*
X104410Y061353D03*
X106410Y061853D03*
X105810Y065103D03*
X102310Y064503D03*
X099910Y063353D03*
X098710Y063003D03*
X096160Y066103D03*
X098410Y067103D03*
X097160Y069353D03*
X102410Y069353D03*
X101160Y056603D03*
X100910Y054353D03*
X098610Y052853D03*
X097910Y033103D03*
X101160Y028603D03*
X100410Y026353D03*
X103160Y024603D03*
X106410Y025353D03*
X106410Y020853D03*
X104410Y019603D03*
X102410Y018353D03*
X099910Y014353D03*
X097160Y014603D03*
X016310Y031103D03*
X016360Y033103D03*
X016410Y035103D03*
X013160Y033603D03*
X013160Y031603D03*
X013160Y037103D03*
D22*
X105410Y058103D02*
X105660Y057853D01*
X105660Y056584D01*
D23*
X105410Y058103D03*
X013472Y040915D03*
D24*
X016160Y039353D02*
X016410Y039603D01*
X095410Y039603D01*
X095660Y039353D01*
X095660Y038103D01*
X095410Y037853D01*
X095410Y035603D01*
X095160Y035353D01*
X019660Y035353D01*
X016160Y038853D01*
X016160Y039353D01*
X016160Y039346D02*
X095660Y039346D01*
X095660Y039248D02*
X016160Y039248D01*
X016160Y039149D02*
X095660Y039149D01*
X095660Y039051D02*
X016160Y039051D01*
X016160Y038952D02*
X095660Y038952D01*
X095660Y038853D02*
X016160Y038853D01*
X016258Y038755D02*
X095660Y038755D01*
X095660Y038656D02*
X016356Y038656D01*
X016455Y038558D02*
X095660Y038558D01*
X095660Y038459D02*
X016553Y038459D01*
X016652Y038361D02*
X095660Y038361D01*
X095660Y038262D02*
X016750Y038262D01*
X016849Y038164D02*
X095660Y038164D01*
X095622Y038065D02*
X016947Y038065D01*
X017046Y037967D02*
X095524Y037967D01*
X095425Y037868D02*
X017144Y037868D01*
X017243Y037769D02*
X095410Y037769D01*
X095410Y037671D02*
X017341Y037671D01*
X017440Y037572D02*
X095410Y037572D01*
X095410Y037474D02*
X017539Y037474D01*
X017637Y037375D02*
X095410Y037375D01*
X095410Y037277D02*
X017736Y037277D01*
X017834Y037178D02*
X095410Y037178D01*
X095410Y037080D02*
X017933Y037080D01*
X018031Y036981D02*
X095410Y036981D01*
X095410Y036883D02*
X018130Y036883D01*
X018228Y036784D02*
X095410Y036784D01*
X095410Y036686D02*
X018327Y036686D01*
X018425Y036587D02*
X095410Y036587D01*
X095410Y036488D02*
X018524Y036488D01*
X018623Y036390D02*
X095410Y036390D01*
X095410Y036291D02*
X018721Y036291D01*
X018820Y036193D02*
X095410Y036193D01*
X095410Y036094D02*
X018918Y036094D01*
X019017Y035996D02*
X095410Y035996D01*
X095410Y035897D02*
X019115Y035897D01*
X019214Y035799D02*
X095410Y035799D01*
X095410Y035700D02*
X019312Y035700D01*
X019411Y035602D02*
X095409Y035602D01*
X095310Y035503D02*
X019509Y035503D01*
X019608Y035404D02*
X095212Y035404D01*
X096610Y032603D02*
X096860Y032353D01*
X098710Y032353D01*
X098960Y032603D01*
X099660Y032603D01*
X099910Y032353D01*
X099910Y031603D01*
X099660Y031353D01*
X098910Y031353D01*
X097660Y030103D01*
X097660Y028603D01*
X097410Y028353D01*
X019910Y028353D01*
X019410Y028853D01*
X019410Y032103D01*
X019910Y032603D01*
X096610Y032603D01*
X096666Y032547D02*
X019854Y032547D01*
X019755Y032448D02*
X096764Y032448D01*
X098805Y032448D02*
X099814Y032448D01*
X099910Y032350D02*
X019657Y032350D01*
X019558Y032251D02*
X099910Y032251D01*
X099910Y032153D02*
X019460Y032153D01*
X019410Y032054D02*
X099910Y032054D01*
X099910Y031955D02*
X019410Y031955D01*
X019410Y031857D02*
X099910Y031857D01*
X099910Y031758D02*
X019410Y031758D01*
X019410Y031660D02*
X099910Y031660D01*
X099869Y031561D02*
X019410Y031561D01*
X019410Y031463D02*
X099770Y031463D01*
X099671Y031364D02*
X019410Y031364D01*
X019410Y031266D02*
X098823Y031266D01*
X098724Y031167D02*
X019410Y031167D01*
X019410Y031069D02*
X098626Y031069D01*
X098527Y030970D02*
X019410Y030970D01*
X019410Y030871D02*
X098429Y030871D01*
X098330Y030773D02*
X019410Y030773D01*
X019410Y030674D02*
X098232Y030674D01*
X098133Y030576D02*
X019410Y030576D01*
X019410Y030477D02*
X098035Y030477D01*
X097936Y030379D02*
X019410Y030379D01*
X019410Y030280D02*
X097837Y030280D01*
X097739Y030182D02*
X019410Y030182D01*
X019410Y030083D02*
X097660Y030083D01*
X097660Y029985D02*
X019410Y029985D01*
X019410Y029886D02*
X097660Y029886D01*
X097660Y029787D02*
X019410Y029787D01*
X019410Y029689D02*
X097660Y029689D01*
X097660Y029590D02*
X019410Y029590D01*
X019410Y029492D02*
X097660Y029492D01*
X097660Y029393D02*
X019410Y029393D01*
X019410Y029295D02*
X097660Y029295D01*
X097660Y029196D02*
X019410Y029196D01*
X019410Y029098D02*
X097660Y029098D01*
X097660Y028999D02*
X019410Y028999D01*
X019410Y028901D02*
X097660Y028901D01*
X097660Y028802D02*
X019460Y028802D01*
X019559Y028704D02*
X097660Y028704D01*
X097660Y028605D02*
X019657Y028605D01*
X019756Y028506D02*
X097564Y028506D01*
X097465Y028408D02*
X019855Y028408D01*
X016160Y025603D02*
X015910Y025353D01*
X095409Y025353D01*
X095410Y025353D02*
X095410Y024103D01*
X095160Y023853D01*
X095160Y021603D01*
X094910Y021353D01*
X019410Y021353D01*
X015910Y024853D01*
X015910Y025353D01*
X015910Y025254D02*
X095410Y025254D01*
X095410Y025156D02*
X015910Y025156D01*
X015910Y025057D02*
X095410Y025057D01*
X095410Y024959D02*
X015910Y024959D01*
X015910Y024860D02*
X095410Y024860D01*
X095410Y024762D02*
X016001Y024762D01*
X016099Y024663D02*
X095410Y024663D01*
X095410Y024565D02*
X016198Y024565D01*
X016296Y024466D02*
X095410Y024466D01*
X095410Y024368D02*
X016395Y024368D01*
X016493Y024269D02*
X095410Y024269D01*
X095410Y024171D02*
X016592Y024171D01*
X016690Y024072D02*
X095379Y024072D01*
X095281Y023973D02*
X016789Y023973D01*
X016888Y023875D02*
X095182Y023875D01*
X095160Y023776D02*
X016986Y023776D01*
X017085Y023678D02*
X095160Y023678D01*
X095160Y023579D02*
X017183Y023579D01*
X017282Y023481D02*
X095160Y023481D01*
X095160Y023382D02*
X017380Y023382D01*
X017479Y023284D02*
X095160Y023284D01*
X095160Y023185D02*
X017577Y023185D01*
X017676Y023087D02*
X095160Y023087D01*
X095160Y022988D02*
X017774Y022988D01*
X017873Y022889D02*
X095160Y022889D01*
X095160Y022791D02*
X017972Y022791D01*
X018070Y022692D02*
X095160Y022692D01*
X095160Y022594D02*
X018169Y022594D01*
X018267Y022495D02*
X095160Y022495D01*
X095160Y022397D02*
X018366Y022397D01*
X018464Y022298D02*
X095160Y022298D01*
X095160Y022200D02*
X018563Y022200D01*
X018661Y022101D02*
X095160Y022101D01*
X095160Y022003D02*
X018760Y022003D01*
X018858Y021904D02*
X095160Y021904D01*
X095160Y021805D02*
X018957Y021805D01*
X019056Y021707D02*
X095160Y021707D01*
X095160Y021608D02*
X019154Y021608D01*
X019253Y021510D02*
X095067Y021510D01*
X094969Y021411D02*
X019351Y021411D01*
X019910Y018853D02*
X100410Y018853D01*
X100660Y018603D01*
X100660Y018353D01*
X100410Y018103D01*
X099160Y018103D01*
X098410Y017353D01*
X019160Y017353D01*
X018910Y017603D01*
X018910Y018103D01*
X019410Y018603D01*
X019660Y018603D01*
X019910Y018853D01*
X019906Y018849D02*
X100413Y018849D01*
X100512Y018751D02*
X019808Y018751D01*
X019709Y018652D02*
X100610Y018652D01*
X100660Y018554D02*
X019361Y018554D01*
X019262Y018455D02*
X100660Y018455D01*
X100660Y018356D02*
X019164Y018356D01*
X019065Y018258D02*
X100565Y018258D01*
X100467Y018159D02*
X018967Y018159D01*
X018910Y018061D02*
X099118Y018061D01*
X099020Y017962D02*
X018910Y017962D01*
X018910Y017864D02*
X098921Y017864D01*
X098822Y017765D02*
X018910Y017765D01*
X018910Y017667D02*
X098724Y017667D01*
X098625Y017568D02*
X018944Y017568D01*
X019043Y017470D02*
X098527Y017470D01*
X098428Y017371D02*
X019141Y017371D01*
X016009Y025452D02*
X095311Y025452D01*
X095212Y025550D02*
X016107Y025550D01*
X016160Y025603D02*
X095160Y025603D01*
X095410Y025353D01*
X098904Y032547D02*
X099716Y032547D01*
X095568Y039445D02*
X016252Y039445D01*
X016351Y039543D02*
X095469Y039543D01*
X097410Y042353D02*
X019910Y042353D01*
X019410Y042853D01*
X019410Y046103D01*
X019910Y046603D01*
X099660Y046603D01*
X099910Y046353D01*
X099910Y045603D01*
X099660Y045353D01*
X098910Y045353D01*
X097660Y044103D01*
X097660Y042603D01*
X097410Y042353D01*
X097458Y042401D02*
X019861Y042401D01*
X019763Y042500D02*
X097557Y042500D01*
X097655Y042598D02*
X019664Y042598D01*
X019566Y042697D02*
X097660Y042697D01*
X097660Y042795D02*
X019467Y042795D01*
X019410Y042894D02*
X097660Y042894D01*
X097660Y042992D02*
X019410Y042992D01*
X019410Y043091D02*
X097660Y043091D01*
X097660Y043189D02*
X019410Y043189D01*
X019410Y043288D02*
X097660Y043288D01*
X097660Y043386D02*
X019410Y043386D01*
X019410Y043485D02*
X097660Y043485D01*
X097660Y043584D02*
X019410Y043584D01*
X019410Y043682D02*
X097660Y043682D01*
X097660Y043781D02*
X019410Y043781D01*
X019410Y043879D02*
X097660Y043879D01*
X097660Y043978D02*
X019410Y043978D01*
X019410Y044076D02*
X097660Y044076D01*
X097732Y044175D02*
X019410Y044175D01*
X019410Y044273D02*
X097831Y044273D01*
X097929Y044372D02*
X019410Y044372D01*
X019410Y044470D02*
X098028Y044470D01*
X098126Y044569D02*
X019410Y044569D01*
X019410Y044668D02*
X098225Y044668D01*
X098323Y044766D02*
X019410Y044766D01*
X019410Y044865D02*
X098422Y044865D01*
X098520Y044963D02*
X019410Y044963D01*
X019410Y045062D02*
X098619Y045062D01*
X098717Y045160D02*
X019410Y045160D01*
X019410Y045259D02*
X098816Y045259D01*
X099665Y045357D02*
X019410Y045357D01*
X019410Y045456D02*
X099763Y045456D01*
X099862Y045554D02*
X019410Y045554D01*
X019410Y045653D02*
X099910Y045653D01*
X099910Y045751D02*
X019410Y045751D01*
X019410Y045850D02*
X099910Y045850D01*
X099910Y045949D02*
X019410Y045949D01*
X019410Y046047D02*
X099910Y046047D01*
X099910Y046146D02*
X019453Y046146D01*
X019551Y046244D02*
X099910Y046244D01*
X099910Y046343D02*
X019650Y046343D01*
X019749Y046441D02*
X099821Y046441D01*
X099723Y046540D02*
X019847Y046540D01*
X019410Y049353D02*
X015910Y052853D01*
X015910Y053353D01*
X016160Y053603D01*
X095160Y053603D01*
X095410Y053353D01*
X095410Y052103D01*
X095160Y051853D01*
X095160Y049603D01*
X094910Y049353D01*
X019410Y049353D01*
X019365Y049398D02*
X094955Y049398D01*
X095053Y049496D02*
X019266Y049496D01*
X019168Y049595D02*
X095152Y049595D01*
X095160Y049693D02*
X019069Y049693D01*
X018971Y049792D02*
X095160Y049792D01*
X095160Y049890D02*
X018872Y049890D01*
X018774Y049989D02*
X095160Y049989D01*
X095160Y050087D02*
X018675Y050087D01*
X018576Y050186D02*
X095160Y050186D01*
X095160Y050284D02*
X018478Y050284D01*
X018379Y050383D02*
X095160Y050383D01*
X095160Y050482D02*
X018281Y050482D01*
X018182Y050580D02*
X095160Y050580D01*
X095160Y050679D02*
X018084Y050679D01*
X017985Y050777D02*
X095160Y050777D01*
X095160Y050876D02*
X017887Y050876D01*
X017788Y050974D02*
X095160Y050974D01*
X095160Y051073D02*
X017690Y051073D01*
X017591Y051171D02*
X095160Y051171D01*
X095160Y051270D02*
X017493Y051270D01*
X017394Y051368D02*
X095160Y051368D01*
X095160Y051467D02*
X017295Y051467D01*
X017197Y051566D02*
X095160Y051566D01*
X095160Y051664D02*
X017098Y051664D01*
X017000Y051763D02*
X095160Y051763D01*
X095168Y051861D02*
X016901Y051861D01*
X016803Y051960D02*
X095267Y051960D01*
X095366Y052058D02*
X016704Y052058D01*
X016606Y052157D02*
X095410Y052157D01*
X095410Y052255D02*
X016507Y052255D01*
X016409Y052354D02*
X095410Y052354D01*
X095410Y052452D02*
X016310Y052452D01*
X016211Y052551D02*
X095410Y052551D01*
X095410Y052650D02*
X016113Y052650D01*
X016014Y052748D02*
X095410Y052748D01*
X095410Y052847D02*
X015916Y052847D01*
X015910Y052945D02*
X095410Y052945D01*
X095410Y053044D02*
X015910Y053044D01*
X015910Y053142D02*
X095410Y053142D01*
X095410Y053241D02*
X015910Y053241D01*
X015910Y053339D02*
X095410Y053339D01*
X095325Y053438D02*
X015995Y053438D01*
X016094Y053536D02*
X095226Y053536D01*
X097660Y056353D02*
X020160Y056353D01*
X019660Y056853D01*
X019660Y060103D01*
X020160Y060603D01*
X099910Y060603D01*
X100160Y060353D01*
X100160Y059603D01*
X099910Y059353D01*
X099160Y059353D01*
X097910Y058103D01*
X097910Y056603D01*
X097660Y056353D01*
X097701Y056394D02*
X020118Y056394D01*
X020020Y056493D02*
X097800Y056493D01*
X097899Y056591D02*
X019921Y056591D01*
X019823Y056690D02*
X097910Y056690D01*
X097910Y056788D02*
X019724Y056788D01*
X019660Y056887D02*
X097910Y056887D01*
X097910Y056985D02*
X019660Y056985D01*
X019660Y057084D02*
X097910Y057084D01*
X097910Y057183D02*
X019660Y057183D01*
X019660Y057281D02*
X097910Y057281D01*
X097910Y057380D02*
X019660Y057380D01*
X019660Y057478D02*
X097910Y057478D01*
X097910Y057577D02*
X019660Y057577D01*
X019660Y057675D02*
X097910Y057675D01*
X097910Y057774D02*
X019660Y057774D01*
X019660Y057872D02*
X097910Y057872D01*
X097910Y057971D02*
X019660Y057971D01*
X019660Y058069D02*
X097910Y058069D01*
X097975Y058168D02*
X019660Y058168D01*
X019660Y058266D02*
X098074Y058266D01*
X098172Y058365D02*
X019660Y058365D01*
X019660Y058464D02*
X098271Y058464D01*
X098369Y058562D02*
X019660Y058562D01*
X019660Y058661D02*
X098468Y058661D01*
X098566Y058759D02*
X019660Y058759D01*
X019660Y058858D02*
X098665Y058858D01*
X098764Y058956D02*
X019660Y058956D01*
X019660Y059055D02*
X098862Y059055D01*
X098961Y059153D02*
X019660Y059153D01*
X019660Y059252D02*
X099059Y059252D01*
X099158Y059350D02*
X019660Y059350D01*
X019660Y059449D02*
X100006Y059449D01*
X100105Y059548D02*
X019660Y059548D01*
X019660Y059646D02*
X100160Y059646D01*
X100160Y059745D02*
X019660Y059745D01*
X019660Y059843D02*
X100160Y059843D01*
X100160Y059942D02*
X019660Y059942D01*
X019660Y060040D02*
X100160Y060040D01*
X100160Y060139D02*
X019696Y060139D01*
X019795Y060237D02*
X100160Y060237D01*
X100160Y060336D02*
X019893Y060336D01*
X019992Y060434D02*
X100078Y060434D01*
X099979Y060533D02*
X020090Y060533D01*
X019160Y063353D02*
X015660Y066853D01*
X015660Y067353D01*
X015910Y067603D01*
X094910Y067603D01*
X095160Y067353D01*
X095160Y066103D01*
X094910Y065853D01*
X094910Y063603D01*
X094660Y063353D01*
X019160Y063353D01*
X019122Y063391D02*
X094698Y063391D01*
X094797Y063489D02*
X019023Y063489D01*
X018925Y063588D02*
X094895Y063588D01*
X094910Y063686D02*
X018826Y063686D01*
X018728Y063785D02*
X094910Y063785D01*
X094910Y063883D02*
X018629Y063883D01*
X018530Y063982D02*
X094910Y063982D01*
X094910Y064081D02*
X018432Y064081D01*
X018333Y064179D02*
X094910Y064179D01*
X094910Y064278D02*
X018235Y064278D01*
X018136Y064376D02*
X094910Y064376D01*
X094910Y064475D02*
X018038Y064475D01*
X017939Y064573D02*
X094910Y064573D01*
X094910Y064672D02*
X017841Y064672D01*
X017742Y064770D02*
X094910Y064770D01*
X094910Y064869D02*
X017644Y064869D01*
X017545Y064967D02*
X094910Y064967D01*
X094910Y065066D02*
X017446Y065066D01*
X017348Y065165D02*
X094910Y065165D01*
X094910Y065263D02*
X017249Y065263D01*
X017151Y065362D02*
X094910Y065362D01*
X094910Y065460D02*
X017052Y065460D01*
X016954Y065559D02*
X094910Y065559D01*
X094910Y065657D02*
X016855Y065657D01*
X016757Y065756D02*
X094910Y065756D01*
X094912Y065854D02*
X016658Y065854D01*
X016560Y065953D02*
X095010Y065953D01*
X095109Y066051D02*
X016461Y066051D01*
X016362Y066150D02*
X095160Y066150D01*
X095160Y066249D02*
X016264Y066249D01*
X016165Y066347D02*
X095160Y066347D01*
X095160Y066446D02*
X016067Y066446D01*
X015968Y066544D02*
X095160Y066544D01*
X095160Y066643D02*
X015870Y066643D01*
X015771Y066741D02*
X095160Y066741D01*
X095160Y066840D02*
X015673Y066840D01*
X015660Y066938D02*
X095160Y066938D01*
X095160Y067037D02*
X015660Y067037D01*
X015660Y067135D02*
X095160Y067135D01*
X095160Y067234D02*
X015660Y067234D01*
X015660Y067332D02*
X095160Y067332D01*
X095081Y067431D02*
X015738Y067431D01*
X015837Y067530D02*
X094983Y067530D01*
D25*
X014160Y033486D02*
X014160Y033231D01*
X014160Y031486D02*
X014160Y031231D01*
D26*
X009910Y014103D03*
X009910Y067603D03*
X105410Y067853D03*
X105410Y014103D03*
D27*
X095660Y014603D02*
X095160Y014103D01*
X016160Y014103D01*
X015660Y014603D01*
X015660Y016853D01*
X015910Y017103D01*
X016160Y017103D01*
X016410Y016853D01*
X095160Y016853D01*
X095660Y016353D01*
X095660Y014603D01*
X095655Y014597D02*
X015665Y014597D01*
X015660Y014686D02*
X095660Y014686D01*
X095660Y014775D02*
X015660Y014775D01*
X015660Y014863D02*
X095660Y014863D01*
X095660Y014952D02*
X015660Y014952D01*
X015660Y015040D02*
X095660Y015040D01*
X095660Y015129D02*
X015660Y015129D01*
X015660Y015217D02*
X095660Y015217D01*
X095660Y015306D02*
X015660Y015306D01*
X015660Y015394D02*
X095660Y015394D01*
X095660Y015483D02*
X015660Y015483D01*
X015660Y015571D02*
X095660Y015571D01*
X095660Y015660D02*
X015660Y015660D01*
X015660Y015749D02*
X095660Y015749D01*
X095660Y015837D02*
X015660Y015837D01*
X015660Y015926D02*
X095660Y015926D01*
X095660Y016014D02*
X015660Y016014D01*
X015660Y016103D02*
X095660Y016103D01*
X095660Y016191D02*
X015660Y016191D01*
X015660Y016280D02*
X095660Y016280D01*
X095644Y016368D02*
X015660Y016368D01*
X015660Y016457D02*
X095556Y016457D01*
X095467Y016545D02*
X015660Y016545D01*
X015660Y016634D02*
X095379Y016634D01*
X095290Y016722D02*
X015660Y016722D01*
X015660Y016811D02*
X095201Y016811D01*
X095566Y014509D02*
X015754Y014509D01*
X015842Y014420D02*
X095478Y014420D01*
X095389Y014332D02*
X015931Y014332D01*
X016019Y014243D02*
X095301Y014243D01*
X095212Y014155D02*
X016108Y014155D01*
X016363Y016900D02*
X015707Y016900D01*
X015795Y016988D02*
X016274Y016988D01*
X016186Y017077D02*
X015884Y017077D01*
M02*
