G75*
G70*
%OFA0B0*%
%FSLAX24Y24*%
%IPPOS*%
%LPD*%
%AMOC8*
5,1,8,0,0,1.08239X$1,22.5*
%
%ADD10R,0.0512X0.1299*%
%ADD11R,0.0315X0.1299*%
%ADD12R,0.0866X0.0551*%
%ADD13R,0.0500X0.0300*%
%ADD14R,0.0300X0.0500*%
%ADD15R,0.0630X0.1181*%
%ADD16R,0.1181X0.0630*%
%ADD17R,0.0295X0.0177*%
%ADD18R,0.0846X0.0945*%
%ADD19R,0.1500X0.1150*%
D10*
X015160Y012915D03*
X020160Y019915D03*
X025160Y012915D03*
X030160Y019915D03*
X035160Y012915D03*
X040160Y019915D03*
X045160Y012915D03*
X050160Y019915D03*
X055160Y012915D03*
X060160Y019915D03*
X065160Y012915D03*
X070160Y019915D03*
X075160Y012915D03*
X080160Y019915D03*
X085160Y012915D03*
X090160Y019915D03*
X095160Y012915D03*
X100160Y019915D03*
X095160Y026915D03*
X100160Y033915D03*
X095160Y040915D03*
X100160Y047915D03*
X095160Y054915D03*
X100160Y061915D03*
X095160Y068915D03*
X090160Y061915D03*
X085160Y054915D03*
X090160Y047915D03*
X085160Y040915D03*
X090160Y033915D03*
X085160Y026915D03*
X080160Y033915D03*
X075160Y026915D03*
X070160Y033915D03*
X065160Y026915D03*
X060160Y033915D03*
X055160Y026915D03*
X050160Y033915D03*
X045160Y026915D03*
X040160Y033915D03*
X035160Y026915D03*
X030160Y033915D03*
X025160Y026915D03*
X020160Y033915D03*
X015160Y026915D03*
X015160Y040915D03*
X020160Y047915D03*
X025160Y040915D03*
X030160Y047915D03*
X035160Y040915D03*
X040160Y047915D03*
X045160Y040915D03*
X050160Y047915D03*
X055160Y040915D03*
X060160Y047915D03*
X065160Y040915D03*
X070160Y047915D03*
X075160Y040915D03*
X080160Y047915D03*
X075160Y054915D03*
X080160Y061915D03*
X085160Y068915D03*
X075160Y068915D03*
X070160Y061915D03*
X065160Y054915D03*
X060160Y061915D03*
X065160Y068915D03*
X055160Y068915D03*
X050160Y061915D03*
X055160Y054915D03*
X045160Y054915D03*
X040160Y061915D03*
X045160Y068915D03*
X035160Y068915D03*
X030160Y061915D03*
X035160Y054915D03*
X025160Y054915D03*
X020160Y061915D03*
X025160Y068915D03*
X015160Y068915D03*
X015160Y054915D03*
D11*
X014524Y012915D03*
X015796Y012915D03*
X024524Y012915D03*
X025796Y012915D03*
X029524Y019915D03*
X030796Y019915D03*
X039524Y019915D03*
X040796Y019915D03*
X049524Y019915D03*
X050796Y019915D03*
X059524Y019915D03*
X060796Y019915D03*
X069524Y019915D03*
X070796Y019915D03*
X079524Y019915D03*
X080796Y019915D03*
X084524Y012915D03*
X085796Y012915D03*
X094524Y012915D03*
X095796Y012915D03*
X099524Y019915D03*
X100796Y019915D03*
X095796Y026915D03*
X094524Y026915D03*
X090796Y033915D03*
X089524Y033915D03*
X085796Y026915D03*
X084524Y026915D03*
X080796Y033915D03*
X079524Y033915D03*
X075796Y026915D03*
X074524Y026915D03*
X070796Y033915D03*
X069524Y033915D03*
X065796Y026915D03*
X064524Y026915D03*
X060796Y033915D03*
X059524Y033915D03*
X055796Y026915D03*
X054524Y026915D03*
X050796Y033915D03*
X049524Y033915D03*
X045796Y026915D03*
X044524Y026915D03*
X040796Y033915D03*
X039524Y033915D03*
X035796Y026915D03*
X034524Y026915D03*
X030796Y033915D03*
X029524Y033915D03*
X025796Y026915D03*
X024524Y026915D03*
X020796Y033915D03*
X019524Y033915D03*
X015796Y026915D03*
X014524Y026915D03*
X019524Y019915D03*
X020796Y019915D03*
X034524Y012915D03*
X035796Y012915D03*
X044524Y012915D03*
X045796Y012915D03*
X054524Y012915D03*
X055796Y012915D03*
X064524Y012915D03*
X065796Y012915D03*
X074524Y012915D03*
X075796Y012915D03*
X089524Y019915D03*
X090796Y019915D03*
X099524Y033915D03*
X100796Y033915D03*
X095796Y040915D03*
X094524Y040915D03*
X085796Y040915D03*
X084524Y040915D03*
X075796Y040915D03*
X074524Y040915D03*
X065796Y040915D03*
X064524Y040915D03*
X055796Y040915D03*
X054524Y040915D03*
X045796Y040915D03*
X044524Y040915D03*
X035796Y040915D03*
X034524Y040915D03*
X030796Y047915D03*
X029524Y047915D03*
X020796Y047915D03*
X019524Y047915D03*
X015796Y040915D03*
X014524Y040915D03*
X024524Y040915D03*
X025796Y040915D03*
X039524Y047915D03*
X040796Y047915D03*
X049524Y047915D03*
X050796Y047915D03*
X059524Y047915D03*
X060796Y047915D03*
X069524Y047915D03*
X070796Y047915D03*
X079524Y047915D03*
X080796Y047915D03*
X084524Y054915D03*
X085796Y054915D03*
X094524Y054915D03*
X095796Y054915D03*
X099524Y047915D03*
X100796Y047915D03*
X090796Y047915D03*
X089524Y047915D03*
X075796Y054915D03*
X074524Y054915D03*
X065796Y054915D03*
X064524Y054915D03*
X055796Y054915D03*
X054524Y054915D03*
X045796Y054915D03*
X044524Y054915D03*
X035796Y054915D03*
X034524Y054915D03*
X030796Y061915D03*
X029524Y061915D03*
X020796Y061915D03*
X019524Y061915D03*
X015796Y054915D03*
X014524Y054915D03*
X024524Y054915D03*
X025796Y054915D03*
X039524Y061915D03*
X040796Y061915D03*
X049524Y061915D03*
X050796Y061915D03*
X059524Y061915D03*
X060796Y061915D03*
X069524Y061915D03*
X070796Y061915D03*
X079524Y061915D03*
X080796Y061915D03*
X084524Y068915D03*
X085796Y068915D03*
X094524Y068915D03*
X095796Y068915D03*
X099524Y061915D03*
X100796Y061915D03*
X090796Y061915D03*
X089524Y061915D03*
X075796Y068915D03*
X074524Y068915D03*
X065796Y068915D03*
X064524Y068915D03*
X055796Y068915D03*
X054524Y068915D03*
X045796Y068915D03*
X044524Y068915D03*
X035796Y068915D03*
X034524Y068915D03*
X025796Y068915D03*
X024524Y068915D03*
X015796Y068915D03*
X014524Y068915D03*
D12*
X101910Y017084D03*
X101910Y015746D03*
X105660Y021746D03*
X105660Y023084D03*
X105660Y027496D03*
X105660Y028834D03*
X105660Y035246D03*
X105660Y036584D03*
X105660Y041246D03*
X105660Y042584D03*
X105660Y049746D03*
X105660Y051084D03*
X105660Y055246D03*
X105660Y056584D03*
X105660Y062746D03*
X105660Y064084D03*
X103410Y064209D03*
X103410Y062871D03*
D13*
X103360Y061040D03*
X103360Y060290D03*
X102460Y060665D03*
X102210Y055290D03*
X102210Y054540D03*
X103110Y054915D03*
X099110Y055290D03*
X099110Y054540D03*
X098210Y054915D03*
X103360Y047540D03*
X103360Y046790D03*
X102460Y047165D03*
X101710Y041290D03*
X101710Y040540D03*
X102610Y040915D03*
X099110Y040540D03*
X099110Y041290D03*
X098210Y040915D03*
X102460Y032665D03*
X103360Y032290D03*
X103360Y033040D03*
X101710Y027290D03*
X101710Y026540D03*
X102610Y026915D03*
X098860Y026540D03*
X098860Y027290D03*
X097960Y026915D03*
X103610Y020040D03*
X103610Y019290D03*
X102710Y019665D03*
X098360Y015665D03*
X097460Y015290D03*
X097460Y016040D03*
X098360Y068040D03*
X098360Y068790D03*
X097460Y068415D03*
X100960Y068040D03*
X100960Y068790D03*
X101860Y068415D03*
D14*
X105347Y061053D03*
X106097Y061053D03*
X105722Y060153D03*
X105347Y047553D03*
X106097Y047553D03*
X105722Y046653D03*
X105347Y033053D03*
X106097Y033053D03*
X105722Y032153D03*
X105347Y020053D03*
X106097Y020053D03*
X105722Y019153D03*
X098222Y013803D03*
X097472Y013803D03*
X097847Y012903D03*
D15*
X100794Y023290D03*
X102526Y023290D03*
X101026Y030040D03*
X099294Y030040D03*
X101044Y037040D03*
X102776Y037040D03*
X101276Y044040D03*
X099544Y044040D03*
X101294Y051040D03*
X103026Y051040D03*
X101276Y057790D03*
X099544Y057790D03*
X099544Y064790D03*
X101276Y064790D03*
X097776Y064790D03*
X096044Y064790D03*
D16*
X099847Y017219D03*
X099847Y015486D03*
D17*
X014160Y030719D03*
X014160Y031231D03*
X014160Y031486D03*
X014160Y032719D03*
X014160Y033231D03*
X014160Y033486D03*
X014160Y034719D03*
X014160Y035231D03*
X014160Y035486D03*
D18*
X014987Y035103D03*
X014987Y033103D03*
X014987Y031103D03*
D19*
X011660Y031103D03*
X011660Y033103D03*
X011660Y035103D03*
X011660Y037103D03*
X011660Y039103D03*
M02*
